<svg width="145" height="390" viewBox="0 0 145 390" fill="none" xmlns="http://www.w3.org/2000/svg">
<path d="M40.1 101C45.5065 101.536 48.7572 118.97 49.55 122.299C51.7851 131.685 50.9557 141.478 52.25 150.975C53.3432 158.997 54.95 167.348 54.95 175.427C54.95 196.984 59 218.683 59 240.276C59 257.063 54.4281 273.525 53.675 290.251C53.1732 301.396 50.6071 310.978 48.5 321.842C44.151 344.267 37.5991 365.793 32 388" stroke="black" stroke-width="2" stroke-linecap="round"/>
<path d="M103.194 104C96.8867 109.871 96.7699 122.908 94.5972 130.188C92.2183 138.16 91.4397 148.208 91.2908 156.377C90.8835 178.706 90.4744 201.627 93.2746 223.806C94.9872 237.371 94.8256 251.525 98.1975 264.936C100.988 276.034 103.856 287.213 106.427 298.399C112.82 326.221 121.755 354.037 127 382" stroke="black" stroke-width="2" stroke-linecap="round"/>
<path d="M47.6849 93.6227C46.5989 93.6227 40.439 95.5987 43.7405 96.7415C47.0236 97.878 53.1637 99.2838 56.5826 99.4017C63.4763 99.6394 70.6176 101.053 77.4052 101.053C83.4614 101.053 89.4342 101.878 95.5677 101.878C99.1527 101.878 110.959 99.4214 104.236 95.6866C99.3901 92.9944 92.9092 93.9951 87.7248 92.843C83.4631 91.896 77.202 91.146 72.8646 91.146C64.1718 91.146 55.155 89.0621 47.6849 92.7971" stroke="black" stroke-width="2" stroke-linecap="round"/>
<path d="M37.7781 92.7971C31.7863 92.1979 25.6038 87.7648 20.4412 85.1835C16.2298 83.0778 12.7583 79.0489 8.8833 77.1113" stroke="black" stroke-width="2" stroke-linecap="round"/>
<path d="M6.40649 74.6348C11.1855 75.2321 16.9475 76.1389 22.0922 76.2859C31.8494 76.5647 42.5826 76.2735 52.1337 78.3498C72.9193 82.8684 95.1554 82.8904 116.39 82.8904C121.558 82.8904 126.725 82.8904 131.892 82.8904C133.899 82.8904 137.58 78.9117 137.58 80.9182C137.58 82.7204 135.378 86.2793 133.956 87.3852C126.794 92.9555 115.717 98.5762 106.3 98.5762" stroke="black" stroke-width="2" stroke-linecap="round"/>
<path d="M2.27881 73.8092C3.01007 67.9591 24.7841 69.6814 27.8713 69.6814C40.5147 69.6814 53.1581 69.6814 65.8015 69.6814C78.2513 69.6814 90.356 69.6289 102.631 71.7453C109.479 72.926 116.707 74.4989 123.637 74.6348C126.291 74.6868 133.976 75.4987 135.195 77.937" stroke="black" stroke-width="2" stroke-linecap="round"/>
<path d="M1.45312 66.379C1.91233 62.7054 5.62392 58.046 7.41554 54.821C10.1527 49.8942 19.8112 49.9719 24.569 49.2255C45.58 45.9297 67.0649 50.6932 88.1375 50.6932C100.264 50.6932 111.852 53.5681 123.82 53.9955C127.052 54.1109 129.967 55.8594 133.085 56.4263C134.704 56.7206 136.291 57.9507 137.671 58.1233C141.107 58.5528 141.743 64.6578 143.267 66.5624C144.937 68.6502 142.473 74.2635 141.799 76.2858" stroke="black" stroke-width="2" stroke-linecap="round"/>
<path d="M50.1616 43.2631C48.925 43.1085 46.1926 38.0085 46.0337 36.6585C45.8603 35.1842 50.5446 34.8799 52.6383 33.9984C56.4744 32.3832 61.1428 34.0314 65.2052 34.1818C69.7945 34.3518 74.2516 35.833 78.8729 35.833C83.062 35.833 87.0854 36.6585 91.4399 36.6585C93.9392 36.6585 98.5816 35.7601 100.521 37.4841C105.821 42.1951 98.6956 45.2629 96.3933 49.8676" stroke="black" stroke-width="2" stroke-linecap="round"/>
<path d="M26.2202 79.5881C30.4374 83.3836 36.1976 85.4024 41.0804 87.8438" stroke="black" stroke-width="2" stroke-linecap="round"/>
<path d="M46.8594 80.4136C47.2428 83.8643 49.6758 87.188 52.6383 88.6692" stroke="black" stroke-width="2" stroke-linecap="round"/>
<path d="M64.1963 83.7158C64.1963 86.0785 65.0219 88.108 65.0219 90.3203" stroke="black" stroke-width="2" stroke-linecap="round"/>
<path d="M84.0098 84.5415C84.0098 87.0346 84.2168 88.4624 82.3586 90.3205" stroke="black" stroke-width="2" stroke-linecap="round"/>
<path d="M102.998 84.5415C102.998 88.9556 100.368 90.704 98.8699 94.4483" stroke="black" stroke-width="2" stroke-linecap="round"/>
<path d="M107.125 95.2739C112.074 95.2739 114.938 92.1685 119.096 90.3205C122.138 88.9686 125.369 87.6807 126.939 84.5415" stroke="black" stroke-width="2" stroke-linecap="round"/>
<path d="M4.75537 62.2511C34.8269 62.2511 64.856 62.2511 94.9255 62.2511C105.988 62.2511 120.42 62.1638 131.067 65.9662C135.163 67.429 139.213 68.8557 143.45 68.8557" stroke="black" stroke-width="2" stroke-linecap="round"/>
<path d="M59.2427 101.878C59.2427 107.107 61.2628 112.483 62.3615 117.564C63.6477 123.513 64.5508 129.717 65.6637 135.727C66.5637 140.587 67.9618 145.099 69.3329 149.761C69.7601 151.214 71.0089 153.067 71.8096 154.348C72.751 155.854 74.7894 149.353 74.9284 148.936C78.3449 138.686 79.9513 127.996 83.3675 117.748C84.8409 113.327 84.7458 107.379 87.3119 103.53" stroke="black" stroke-width="2" stroke-linecap="round"/>
<path d="M49.3359 386.699C49.9447 380.611 54.0835 375.204 54.2893 368.72C54.5255 361.28 56.0444 353.343 57.5916 346.062C59.6882 336.196 60.9717 326.224 62.7284 316.342C63.9081 309.706 65.6297 302.813 65.8473 296.07C66.337 280.887 69.5516 265.724 69.9751 250.48C70.3578 236.702 72.4518 222.973 72.4518 209.202" stroke="black" stroke-width="2" stroke-linecap="round"/>
<path d="M79.8818 226.539C81.2714 230.013 80.7799 234.114 81.5788 237.776C82.8049 243.395 83.9547 248.832 84.0097 254.608C84.0796 261.953 84.8352 269.176 84.8352 276.531C84.8352 288.22 86.6797 299.376 88.9631 310.792C91.47 323.327 92.4805 336.143 94.742 348.723C96.1653 356.639 98.1828 365.107 98.824 373.123C99.1929 377.734 99.2943 384.245 101.347 388.35" stroke="black" stroke-width="2" stroke-linecap="round"/>
<path d="M70.6018 35.5066C70.6018 32.0589 72.8369 28.1147 73.5712 24.653C74.9487 18.1591 75.2095 10.5478 75.2095 3.94389C75.2095 3.0003 75.2095 -2.00281 75.2095 1.05128C75.2095 4.09703 75.0478 8.07329 74.1856 10.9834C73.4887 13.3354 73.9447 15.8301 74.3136 18.2278C74.5665 19.8716 74.6773 23.306 75.4399 24.6786C76.2637 26.1615 75.5409 28.4192 76.2334 29.9774C76.9733 31.6421 77.1635 33.4245 77.9741 35.0459" stroke="black" stroke-width="2" stroke-linecap="round"/>
</svg>
