<svg width="195" height="517" viewBox="0 0 195 517" fill="none" xmlns="http://www.w3.org/2000/svg">
<path d="M24.3027 145.117C25.1209 143.685 26.1583 142.527 26.796 140.976C27.616 138.981 28.9166 137.466 30.2297 135.778C30.8353 134.999 31.3988 134.191 31.8408 133.307C32.1679 132.652 32.261 131.93 32.5698 131.28C33.1636 130.03 34.7658 129.476 35.8723 128.801C36.2103 128.595 36.5384 128.326 36.1202 128.852C35.391 129.77 34.6431 130.685 33.9695 131.645C33.5779 132.202 33.2043 132.781 32.9198 133.401C32.8901 133.466 32.8286 133.648 32.8906 133.613C33.9052 133.042 34.868 132.198 35.8213 131.542C38.8758 129.442 41.9196 127.33 44.9632 125.215C46.6324 124.054 48.3401 123.446 50.1902 122.678C50.8403 122.407 51.4435 122.091 52.0347 121.715C52.6511 121.323 50.8139 122.519 50.1975 122.911C45.9391 125.621 41.3834 127.948 37.3085 130.93C37.2395 130.981 36.8711 131.308 36.9658 130.967C37.2018 130.117 37.9418 129.16 38.4311 128.495C42.0397 123.596 46.4561 119.355 50.6131 114.935C50.9652 114.561 51.8387 113.645 50.9411 114.6C48.4857 117.212 45.5876 119.451 43.024 121.963C40.9478 123.998 38.8695 126.034 37.0168 128.276C36.931 128.38 36.6594 128.659 36.7034 128.532C37.2395 126.977 38.3044 125.421 39.1164 124.019C40.9317 120.886 43.0163 118.05 45.5974 115.504C46.2914 114.82 46.1885 114.977 45.6047 115.54C42.1267 118.899 38.1899 121.883 35.6025 126.046C35.1114 126.836 36.9123 125.26 36.9148 125.258C42.668 120.21 48.0595 114.626 54.3092 110.175C55.6868 109.194 57.1315 108.426 58.6979 107.806C58.8536 107.744 59.3678 107.399 59.2082 107.718" stroke="#332B3A" stroke-width="2" stroke-linecap="round"/>
<path d="M41.3875 125.444C43.4925 124.855 45.4984 123.83 47.4833 122.936C51.7338 121.022 55.941 119.043 60.2538 117.271C62.0035 116.552 63.8816 115.965 65.4624 114.911" stroke="#332B3A" stroke-width="2" stroke-linecap="round"/>
<path d="M177.156 125.212C177 125.154 177.031 124.892 177.015 124.762C176.926 124.064 176.736 123.399 176.52 122.73C175.947 120.964 175.164 119.567 174.057 118.049C173.22 116.902 172.396 115.763 171.613 114.577C171.01 113.663 170.432 112.66 169.626 111.902C169.008 111.32 168.34 110.833 167.659 110.333C165.343 108.63 162.735 107.39 160.232 105.999C159.8 105.759 158.501 105.1 158.984 105.201C161.079 105.642 163.252 106.415 165.241 107.201C165.685 107.377 166.552 107.961 166.662 108.468C166.674 108.523 166.544 108.47 166.495 108.442C166.06 108.202 165.65 107.905 165.228 107.645C164.051 106.919 162.854 106.231 161.698 105.471C159.731 104.18 157.621 102.647 155.448 101.723C154.396 101.275 153.294 100.997 152.181 100.765C150.418 100.396 148.712 99.8074 146.96 99.4013C144.537 98.84 141.989 98.2624 139.5 98.141C139.383 98.1352 138.666 98.0251 138.523 98.1538C138.438 98.2304 138.502 98.3187 138.6 98.2825C139.687 97.8822 140.967 97.9747 142.111 97.9224C143.52 97.8579 145.025 98.0351 146.426 98.1989C147.706 98.3485 148.99 98.7811 150.278 98.8226C151.807 98.8719 147.227 98.5681 145.699 98.4754C141.405 98.2147 137.247 97.0864 132.942 97.0864C124.553 97.0864 116.183 97.8966 107.799 97.8966C104.563 97.8966 101.339 98.4287 98.1282 98.7647C96.6289 98.9216 95.2144 99.3643 93.7556 99.7228C92.5253 100.025 91.2683 100.179 90.026 100.417C89.8575 100.45 89.6957 100.443 89.5245 100.443C88.7079 100.443 87.8929 100.843 87.1003 101.022C85.8991 101.293 84.6981 101.49 83.5186 101.858C82.6013 102.144 81.6927 102.622 80.7407 102.758" stroke="#332B3A" stroke-width="2" stroke-linecap="round"/>
<path d="M45.0913 114.332C46.5492 113.635 47.906 112.959 49.2388 112.03C50.3445 111.26 51.4474 110.436 52.7305 109.986C54.8355 109.247 56.9868 108.685 59.0964 107.967C60.1296 107.615 61.1494 107.246 62.1701 106.86C63.237 106.457 64.3496 106.332 65.4624 106.115C67.6039 105.696 69.6747 105.075 71.7898 104.552C73.9632 104.015 76.2152 103.837 78.4001 103.337C79.9041 102.993 81.4488 102.745 82.927 102.301C83.427 102.151 84.3122 102.196 84.676 101.832" stroke="#332B3A" stroke-width="2" stroke-linecap="round"/>
<path d="M63.9575 105.42C69.0184 104.186 74.0992 103.151 79.2358 102.295" stroke="#332B3A" stroke-width="2" stroke-linecap="round"/>
<path d="M43.7024 124.286C45.7226 123.309 47.559 121.991 49.6118 121.046C51.4951 120.178 53.3896 119.382 55.174 118.326C58.1686 116.552 61.4974 115.745 64.5879 114.217C65.8874 113.574 67.2196 112.934 68.6261 112.558C70.1798 112.142 71.7648 111.924 73.3073 111.439C74.796 110.971 76.2622 110.301 77.8214 110.101C79.4107 109.898 81.026 109.975 82.6184 109.793C88.6086 109.107 94.4306 107.657 100.449 107.214C101.896 107.108 103.342 107.264 104.79 107.272C106.445 107.281 108.099 107.272 109.754 107.272C111.281 107.272 112.798 107.041 114.307 107.041" stroke="#332B3A" stroke-width="2" stroke-linecap="round"/>
<path d="M113.844 107.504C116.262 107.624 118.679 107.803 121.097 107.941C123.284 108.065 125.433 108.543 127.624 108.661C134.968 109.058 142.223 110.373 149.197 112.712C150.936 113.295 152.709 113.821 154.47 114.332C155.972 114.769 157.695 114.91 159.1 115.612C160.424 116.274 161.65 117.054 163.087 117.464C164.25 117.796 165.386 118.821 166.443 119.425C169.233 121.019 172.063 122.739 175.047 123.933C175.393 124.071 176.097 124.264 176.346 124.576C176.371 124.608 176.494 124.777 176.52 124.782C176.665 124.811 176.521 124.479 176.475 124.338C176.201 123.503 175.768 122.716 175.33 121.959C173.794 119.304 172.388 116.724 169.89 114.847C168.407 113.732 166.944 112.587 165.344 111.664C163.327 110.5 161.071 109.782 158.907 108.944C155.793 107.738 152.712 106.437 149.493 105.536" stroke="#332B3A" stroke-width="2" stroke-linecap="round"/>
<path d="M173.336 121.509C173.232 120.883 172.719 120.293 172.385 119.772C171.789 118.846 171.036 118.041 170.301 117.226C169.256 116.067 168.224 114.917 167.228 113.715C166.116 112.374 165.295 110.833 164.289 109.413C164.015 109.027 162.705 108.882 162.264 108.712C160.773 108.139 159.245 107.526 157.846 106.751C156.648 106.088 155.48 105.351 154.29 104.668C152.328 103.541 149.843 103.414 147.654 103.08C145.712 102.783 143.795 102.361 141.841 102.141C139.684 101.898 137.517 101.762 135.359 101.511C133.917 101.342 132.461 101.212 131.038 100.913C130.67 100.835 130.166 100.614 129.778 100.7C129.6 100.74 130.11 100.546 130.286 100.495C131.674 100.09 133.193 100.106 134.626 100.096C136.64 100.081 138.883 99.8396 140.87 100.218C142.681 100.563 144.719 100.725 146.381 101.556C147.857 102.293 148.832 103.343 149.744 104.694C151.294 106.988 153.133 108.699 155.782 109.651C158.039 110.463 160.21 110.941 162.225 112.275C163.207 112.925 163.992 113.861 164.939 114.564C165.748 115.166 166.601 115.784 167.434 116.352C168.189 116.867 169.888 119.025 169.427 118.236C168.597 116.813 166.454 116.177 165.022 115.67C163.783 115.232 162.524 114.872 161.325 114.332C156.427 112.128 152.315 108.555 147.268 106.629C144.247 105.476 141.375 104.682 138.144 104.333C135.084 104.003 132.085 103.8 129.013 103.8C127.021 103.8 125.075 103.607 123.097 103.395C122.259 103.305 121.422 103.258 120.583 103.195C120.161 103.164 119.659 103.011 119.284 103.105" stroke="#332B3A" stroke-width="5" stroke-linecap="round"/>
<path d="M117.432 104.378C121.159 104.829 124.881 105.376 128.62 105.709C133.709 106.163 138.809 106.623 143.796 107.793C146.821 108.503 150.123 109.383 152.888 110.834C154.384 111.62 156.047 113.059 157.827 113.059" stroke="#332B3A" stroke-width="5" stroke-linecap="round"/>
<path d="M131.205 99.8643C129.028 99.7735 126.89 99.8712 124.724 100.096C122.148 100.363 119.61 100.853 117.033 101.112C114.505 101.366 111.971 101.291 109.445 101.639C105.842 102.135 102.311 103.426 98.6811 103.658C96.6235 103.79 94.5539 103.726 92.4952 103.851C89.9886 104.003 87.5413 104.602 85.0683 104.996C83.326 105.273 81.5678 105.403 79.8662 105.889C79.2327 106.07 78.6017 106.249 77.9628 106.41C77.8396 106.441 77.4152 106.495 77.3005 106.629C77.2377 106.702 77.4964 106.64 77.5899 106.616C78.449 106.393 79.3115 106.21 80.1813 106.031C83.8789 105.268 87.4021 104.078 91.0291 103.06C93.8678 102.263 96.8621 102.015 99.7678 101.555C103.287 100.999 106.826 101.12 110.333 101.774C112.969 102.265 114.984 104.188 117.548 104.957" stroke="#332B3A" stroke-width="5" stroke-linecap="round"/>
<path d="M116.043 105.42C114.398 105.776 112.523 105.536 110.847 105.536C108.776 105.536 106.742 105.561 104.68 105.761C101.989 106.021 99.2794 105.77 96.5847 106.012C94.0718 106.237 91.6011 106.784 89.087 107.002C87.0612 107.178 85.0666 107.069 83.0426 106.976C81.4163 106.902 79.3866 106.637 77.8212 107.227C77.3651 107.399 77.154 107.573 76.966 107.928C76.4863 108.834 75.0899 109.399 74.2331 109.812C72.3003 110.743 70.1602 111.272 68.1244 111.934C65.4809 112.794 62.7999 113.546 60.1637 114.448C56.5936 115.67 52.7395 116.346 49.3737 118.107C46.7623 119.474 44.5759 121.521 41.9789 122.885C40.9069 123.448 39.6936 123.674 38.6095 124.197C38.4045 124.295 37.7989 124.75 38.1465 124.287" stroke="#332B3A" stroke-width="5" stroke-linecap="round"/>
<path d="M34.5586 129.032C35.4065 128.558 35.9933 127.758 36.5841 127.013C37.1641 126.282 37.8351 125.64 38.4939 124.981" stroke="#332B3A" stroke-width="5" stroke-linecap="round"/>
<path d="M48.9109 116.3C50.8183 114.961 52.6798 113.592 54.7753 112.551C57.1705 111.361 59.8185 110.339 62.408 109.658C68.9635 107.932 75.487 105.965 82.1296 104.61" stroke="#332B3A" stroke-width="5" stroke-linecap="round"/>
<path d="M108.635 99.1698C111.157 98.6444 113.825 98.7069 116.39 98.7069C118.398 98.7069 120.425 98.5882 122.409 98.9383" stroke="#332B3A" stroke-width="5" stroke-linecap="round"/>
<path d="M78 155C83.5177 161.207 81.0077 168.197 83.2716 175.837C85.9509 184.88 87.851 194.268 89.7074 203.55C91.974 214.883 91.6884 228.431 96.2745 238.75C98.3759 243.478 98.8371 249.244 101.003 254.117C102.522 257.535 104.606 264.595 104.812 268.302C105.034 272.302 109.069 275.176 109.54 278.94C110.366 285.548 116.016 276.756 116.895 275.657C123.135 267.858 119.396 252.589 122.28 243.215C123.541 239.119 123.725 230.834 123.725 226.666C123.725 221.368 124.907 216.37 124.907 211.562C124.907 200.923 124.907 190.285 124.907 179.646C124.907 168.232 126.5 163.112 126.5 152" stroke="#1A1817" stroke-width="2" stroke-linecap="round"/>
<path d="M134.364 153C134.364 176.839 134.364 193.043 134.364 216.881C134.364 227.889 134.514 238.908 134.364 249.914C134.213 260.871 131.999 271.636 131.999 282.552C131.999 302.232 131.999 321.911 131.999 341.59C131.999 359.423 131.855 377.068 134.101 394.784C136.63 414.737 140.274 434.35 140.274 454.479C140.274 471.962 145.002 489.514 145.002 507.081" stroke="#1A1817" stroke-width="2" stroke-linecap="round"/>
<path d="M47.1045 168.58C48.0607 159.974 63.8244 155.763 70.3238 152.514C80.5623 147.395 93.6667 145.36 105.387 145.36C115.069 145.36 126.519 142.074 135.76 146.181C138.805 147.535 143.678 148.603 146.901 149.523C150.208 150.468 154.52 152.748 157.924 152.748" stroke="#1A1817" stroke-width="2" stroke-linecap="round"/>
<path d="M158.979 153.804C158.979 155.375 159.552 156.577 160.035 158.025" stroke="#1A1817" stroke-width="2" stroke-linecap="round"/>
<path d="M149.422 165.79C149.312 166.778 147.8 167.078 147.045 167.29C145.338 167.768 143.597 168.054 141.922 168.634C140.761 169.036 139.408 169.055 138.298 169.559C137.806 169.783 137.152 169.787 136.623 169.92C136.094 170.052 135.587 170.348 135.045 170.348" stroke="#1A1817" stroke-width="2" stroke-linecap="round"/>
<path d="M124.174 171.576C124.059 172.095 122.668 172.337 122.246 172.491C120.797 173.022 119.319 173.331 117.804 173.592C115.724 173.951 113.658 174.176 111.551 174.206C110.317 174.223 109.058 174.395 107.83 174.517C106.421 174.658 104.968 174.386 103.573 174.644C101.866 174.96 99.9606 174.732 98.226 174.732C96.8234 174.732 95.4208 174.732 94.0182 174.732C92.238 174.732 90.5036 174.315 88.7583 173.991C88.1057 173.87 87.4747 173.613 86.8297 173.465C86.322 173.349 85.6415 173.279 85.1739 173.066C84.638 172.822 84.0189 173.063 83.4985 172.803" stroke="#1A1817" stroke-width="2" stroke-linecap="round"/>
<path d="M46.5046 169.296C46.9674 169.354 47.5225 170.138 47.9949 170.348C48.5005 170.573 49.1119 171.05 49.6605 171.05" stroke="#1A1817" stroke-width="2" stroke-linecap="round"/>
<path d="M55.9722 171.225C56.2785 171.263 56.7472 171.727 57.1313 171.838C58.2667 172.168 59.5229 172.419 60.706 172.452C62.2267 172.495 63.7322 172.627 65.2645 172.627C66.4511 172.627 67.5893 172.452 68.771 172.452C69.469 172.452 70.2737 172.577 70.875 172.277" stroke="#1A1817" stroke-width="2" stroke-linecap="round"/>
<path d="M52.186 186.761C48.3704 186.761 43.8302 185.733 40.6061 183.583C35.818 180.391 32.993 176.464 28.9909 172.462C25.052 168.523 23.5894 160.483 23.5894 155.128C23.5894 151.641 24.9062 147.905 26.449 144.819C27.1527 143.412 27.6105 141.743 28.3908 140.406C28.9465 139.453 30.0935 139.24 30.5796 138.146C31.7604 135.49 35.4603 133.301 37.4287 131.333C41.0793 127.682 46.1937 125.639 50.562 122.859C67.1823 112.283 86.3378 108.596 105.884 108.596C118.671 108.596 131.937 109.284 144.331 112.727C149.205 114.081 154.145 115.804 158.947 117.493C163.041 118.934 168.099 120.572 171.657 123.071C174.429 125.019 176.791 125.922 178.965 128.579C180.907 130.953 182.639 133.81 184.013 136.558C186.526 141.582 186.908 147.719 186.908 153.221" stroke="#1A1817" stroke-width="2" stroke-linecap="round"/>
<path d="M179.576 171.711C187.171 170.867 190.088 161.019 192.106 155.367C194.17 149.59 193.741 143.491 193.741 137.389C193.741 129.572 194.944 123.209 191.561 115.598C189.445 110.835 187.515 106.822 185.024 102.462C180.921 95.2813 169.07 88.4252 160.811 87.8134C151.896 87.153 141.488 86.2501 132.724 84.3025C119.145 81.285 103.512 83.455 89.6252 83.455C66.4391 83.455 41.3131 87.1604 21.1028 98.7092C12.339 103.717 8.64217 116.788 4.69856 125.464C2.72717 129.801 1.97461 137.264 1.97461 142.05C1.97461 147.303 3.86421 151.534 4.15377 156.457C4.45462 161.571 11.7956 166.278 15.0496 169.532C19.7165 174.199 26.2656 177.266 32.4828 179.338" stroke="#1A1817" stroke-width="2" stroke-linecap="round"/>
<path d="M23.0659 145.801C23.4014 143.117 26.891 138.656 28.4584 136.426C30.5563 133.44 32.5715 129.682 34.2658 126.387C37.6284 119.849 43.8053 113.332 50.3604 109.961C59.6697 105.173 70.4169 102.498 80.7245 100.835C90.4146 99.2722 99.1033 95.9356 109.097 95.7744C130.33 95.432 153.094 92.6076 169.245 109.38C173.263 113.553 176.21 119.342 178.205 124.728C179.247 127.541 182.104 131.016 182.104 133.854" stroke="#1A1817" stroke-width="2" stroke-linecap="round"/>
<path d="M109.014 501.356C109.014 495.773 110.316 490.687 110.723 485.192C111.06 480.653 110.196 475.938 111.212 471.47C113.721 460.428 113.163 447.426 113.409 436.114C113.519 431.046 114.613 425.063 115.607 420.096C116.569 415.287 116.123 409.874 117.804 405.251C119.982 399.262 123.078 411.25 123.078 412.967C123.078 415.929 124.496 419.493 125.032 422.44C125.886 427.14 126.836 431.821 127.669 436.505C129.539 447.028 130.176 457.764 131.868 468.344C134.009 481.721 137.142 494.892 137.142 508.388" stroke="#1A1817" stroke-width="2" stroke-linecap="round"/>
<path d="M70.4419 84.0027C84.2866 71.4166 105.006 65.1609 123.3 70.3877C126.272 71.2369 133.85 74.5904 135.313 77.1507C136.479 79.1906 139.71 83.7987 141.72 84.8036" stroke="#1A1817" stroke-width="2" stroke-linecap="round"/>
<path d="M80.8535 75.193C82.3826 75.0231 84.893 72.0838 85.6588 70.7437C87.1832 68.0761 89.207 66.7568 91.4429 64.6036C96.4518 59.7803 103.393 55.9719 110.308 55.9719C116.05 55.9719 121.687 57.3789 124.902 62.201C126.665 64.8459 128.879 66.8867 129.752 69.9428C130.049 70.984 132.148 74.011 132.911 74.3922" stroke="#1A1817" stroke-width="2" stroke-linecap="round"/>
<path d="M98.0525 57.98C101.727 54.3057 103.428 48.5556 104.845 43.6966C106.525 37.937 107.008 31.8198 107.732 25.8847C108.246 21.6699 108.182 17.3924 108.241 13.1485C108.268 11.2961 108.581 5.74861 108.581 7.60118C108.581 9.38387 108.902 11.388 109.185 13.1485C111.74 29.0464 117.114 44.1804 122.166 59.3385" stroke="#1A1817" stroke-width="2" stroke-linecap="round"/>
<path d="M104.505 55.6027C104.588 54.9417 106.217 53.3295 106.694 52.7158C107.578 51.5796 108.157 49.8026 108.732 48.4893C109.285 47.224 109.472 45.8324 109.939 44.5458C110.219 43.7783 110.593 40.6458 111.449 42.357C112.612 44.6823 113.917 47.7807 114.015 50.4327C114.089 52.4294 114.954 55.6521 116.053 57.3008" stroke="#1A1817" stroke-width="2" stroke-linecap="round"/>
<path d="M11.0571 165.486C13.6144 164.475 17.7018 162.496 20.5247 162.496" stroke="#1A1817" stroke-width="2" stroke-linecap="round"/>
<path d="M4.57959 154.025C9.29748 154.025 13.9328 153.284 18.5318 153.028C19.8972 152.952 21.0753 152.53 22.5181 152.53" stroke="#1A1817" stroke-width="2" stroke-linecap="round"/>
<path d="M2.08789 144.557C7.98808 144.557 13.7698 144.773 19.5281 146.052C21.4258 146.474 23.0629 146.551 25.0093 146.551" stroke="#1A1817" stroke-width="2" stroke-linecap="round"/>
<path d="M4.08105 131.602C9.01208 132.15 14.1316 134.563 18.9468 135.837C21.5848 136.536 23.9674 137.732 26.5042 138.578" stroke="#1A1817" stroke-width="2" stroke-linecap="round"/>
<path d="M9.06396 117.649C16.445 121.763 24.4787 124.36 31.9854 128.114" stroke="#1A1817" stroke-width="2" stroke-linecap="round"/>
<path d="M18.0334 103.199C22.9025 106.922 27.5913 110.88 32.4839 114.549C34.2786 115.895 36.3758 116.558 37.9651 118.148" stroke="#1A1817" stroke-width="2" stroke-linecap="round"/>
<path d="M36.9685 93.2332C39.5493 97.5688 41.5285 102.033 44.7474 105.967C46.0716 107.586 47.5095 109.332 48.4292 111.172" stroke="#1A1817" stroke-width="2" stroke-linecap="round"/>
<path d="M54.907 88.2502C56.8947 93.6904 60.6422 99.3445 63.8762 104.196" stroke="#1A1817" stroke-width="2" stroke-linecap="round"/>
<path d="M71.8491 86.2571C74.7322 90.7419 75.4395 96.3764 78.3269 100.708" stroke="#1A1817" stroke-width="2" stroke-linecap="round"/>
<path d="M94.272 84.7622C95.2584 86.8447 94.9867 88.8361 95.5454 90.9909C96.0459 92.9215 96.7634 94.6981 96.7634 96.7212" stroke="#1A1817" stroke-width="2" stroke-linecap="round"/>
<path d="M117.692 83.7656C117.692 86.3366 117.882 88.7146 118.163 91.24C118.321 92.6706 117.874 94.0049 118.688 95.2263" stroke="#1A1817" stroke-width="2" stroke-linecap="round"/>
<path d="M140.613 85.2605C140.474 88.8731 138.62 92.2051 138.62 95.7246" stroke="#1A1817" stroke-width="2" stroke-linecap="round"/>
<path d="M156.06 89.2468C156.06 91.2607 154.988 92.9832 154.067 94.728C153.601 95.6108 152.719 98.3917 152.074 98.7144" stroke="#1A1817" stroke-width="2" stroke-linecap="round"/>
<path d="M175.992 94.2297C173.631 98.9524 168.264 102.211 166.026 106.687" stroke="#1A1817" stroke-width="2" stroke-linecap="round"/>
<path d="M187.453 108.182C187.038 111.914 177.378 113.736 174.497 115.656" stroke="#1A1817" stroke-width="2" stroke-linecap="round"/>
<path d="M192.436 122.134C189.628 122.415 186.741 123.638 183.854 124.016C181.829 124.282 179.989 124.723 177.985 125.124" stroke="#1A1817" stroke-width="2" stroke-linecap="round"/>
<path d="M182.47 134.093C184.139 135.611 186.674 136.399 188.726 137.332C189.844 137.84 192.965 138.142 193.432 139.076" stroke="#1A1817" stroke-width="2" stroke-linecap="round"/>
<path d="M185.958 146.551C187.982 146.775 189.197 150.039 191.439 150.039" stroke="#1A1817" stroke-width="2" stroke-linecap="round"/>
<path d="M185.958 160.004C186.06 160.819 188.205 162.248 188.948 162.496" stroke="#1A1817" stroke-width="2" stroke-linecap="round"/>
<path d="M70.8605 151.064C69.1886 150.692 67.9499 146.484 67.2981 145.126C65.0678 140.48 63.4372 135.323 62.2514 130.316C61.169 125.746 60.7671 121.299 60.7671 116.627" stroke="#1A1817" stroke-width="2" stroke-linecap="round"/>
<path d="M48.2988 126.721C48.2988 136.89 52.1876 149.015 59.5797 156.407" stroke="#1A1817" stroke-width="2" stroke-linecap="round"/>
<path d="M32.8618 136.221C35.5377 145.854 42.9489 155.02 52.4548 158.189" stroke="#1A1817" stroke-width="2" stroke-linecap="round"/>
<path d="M23.9561 154.032C24.7784 162.256 41.1189 165.313 47.7052 165.313" stroke="#1A1817" stroke-width="2" stroke-linecap="round"/>
<path d="M26.3311 171.25C28.9186 171.721 31.228 173.609 33.9176 174.087C36.0921 174.474 38.7195 173.24 40.9104 173.065C42.8218 172.912 46.7204 173.22 47.7053 171.25" stroke="#1A1817" stroke-width="2" stroke-linecap="round"/>
<path d="M38.7993 183.719C42.7992 183.319 47.3881 177.863 48.299 174.219" stroke="#1A1817" stroke-width="2" stroke-linecap="round"/>
<path d="M50.0801 187.281C51.0497 187.16 51.6718 185.892 52.455 185.5" stroke="#1A1817" stroke-width="2" stroke-linecap="round"/>
<path d="M60.1733 186.094C60.4356 183.733 61.7135 181.336 62.2514 178.969C62.6914 177.033 62.5483 175.009 62.5483 173.032" stroke="#1A1817" stroke-width="2" stroke-linecap="round"/>
<path d="M70.267 175.407C70.267 179.596 68.5216 184.835 66.7046 188.469" stroke="#1A1817" stroke-width="2" stroke-linecap="round"/>
<path d="M94.016 176C92.7265 177.451 93.1893 179.869 92.7955 181.641C92.3607 183.597 91.3128 185.563 90.4536 187.281" stroke="#1A1817" stroke-width="2" stroke-linecap="round"/>
<path d="M113.609 175.407C113.966 178.268 118.841 182.476 121.327 183.719" stroke="#1A1817" stroke-width="2" stroke-linecap="round"/>
<path d="M134.983 171.25C135.449 175.904 139.882 178.474 143.296 180.75" stroke="#1A1817" stroke-width="2" stroke-linecap="round"/>
<path d="M158.139 166.501C158.464 169.106 161.397 169.469 163.482 169.469C165.743 169.469 168.497 170.547 170.607 171.251" stroke="#1A1817" stroke-width="2" stroke-linecap="round"/>
<path d="M76.7979 114.253C76.7979 122.598 77.3358 131.527 80.9539 139.189C82.1673 141.759 83.6264 146.166 86.2975 147.501" stroke="#1A1817" stroke-width="2" stroke-linecap="round"/>
<path d="M94.016 111.878C92.8057 113.391 92.8539 117.177 92.8286 119.002C92.7709 123.154 92.3669 127.672 93.1254 131.768C93.9265 136.093 94.9251 143.067 98.1721 146.314" stroke="#1A1817" stroke-width="2" stroke-linecap="round"/>
<path d="M108.265 110.69C107.643 122.518 107.672 134.418 107.672 146.314" stroke="#1A1817" stroke-width="2" stroke-linecap="round"/>
<path d="M115.39 145.126C116.822 144.967 118.746 140.419 119.249 139.189C120.9 135.155 121.945 131.009 122.647 126.721C123.552 121.188 124.89 115.728 124.89 110.096" stroke="#1A1817" stroke-width="2" stroke-linecap="round"/>
<path d="M128.452 144.533C136.555 143.06 142.439 130.418 145.34 123.785C146.467 121.21 148.045 118.275 148.045 115.44" stroke="#1A1817" stroke-width="2" stroke-linecap="round"/>
<path d="M146.264 150.47C154.052 142.682 164.076 132.899 164.076 120.784" stroke="#1A1817" stroke-width="2" stroke-linecap="round"/>
<path d="M158.732 153.439C161.319 153.439 163.886 150.685 165.857 149.283C168.994 147.051 170.619 144.119 173.114 141.432C175.22 139.164 180.107 133.415 180.107 130.283" stroke="#1A1817" stroke-width="2" stroke-linecap="round"/>
<path d="M161.107 157.001C166.503 157.001 171.072 153.994 176.083 152.383C179.53 151.275 182.273 149.299 184.263 146.314" stroke="#1A1817" stroke-width="2" stroke-linecap="round"/>
<path d="M159.326 161.751C164.517 162.27 169.445 164.09 174.763 163.499C177.647 163.179 180.955 162.062 183.669 161.157" stroke="#1A1817" stroke-width="2" stroke-linecap="round"/>
<path d="M60.0771 187.948C62.0829 188.171 64.001 189.826 66.1504 190.197C67.6608 190.457 69.272 190.716 70.8014 190.716C72.8988 190.716 74.9116 191.062 77.0284 191.062" stroke="#1A1817" stroke-width="2" stroke-linecap="round"/>
<path d="M87.0608 190.024C90.4812 191.464 95.5614 190.187 99.1688 190.043C103.257 189.88 107.13 189.75 111.142 188.986C115.118 188.229 119.688 187.256 123.731 187.256" stroke="#1A1817" stroke-width="2" stroke-linecap="round"/>
<path d="M132.726 185.527C137.26 185.527 141.699 183.981 145.526 182.067" stroke="#1A1817" stroke-width="2" stroke-linecap="round"/>
<path d="M154.049 180.802C155.202 179.964 157.579 179.6 158.935 179.245C160.826 178.75 162.701 178.257 164.561 177.649C167.775 176.597 171.422 175.579 174.352 173.931C175.422 173.328 176.803 172.413 177.7 171.517C178.315 170.902 179.02 169.543 179.627 169.24" stroke="#1A1817" stroke-width="2" stroke-linecap="round"/>
<path d="M179.518 169.375C179.567 168.931 180.387 168.082 180.651 167.687C181.178 166.897 181.523 166.087 181.941 165.233C182.998 163.07 184.086 160.861 185.317 158.793C185.672 158.197 185.886 157.523 186.208 156.925C186.432 156.509 186.796 155.963 186.833 155.479C186.861 155.116 187.115 154.757 187.115 154.392C187.115 154.035 187.106 153.777 187.255 153.478" stroke="#1A1817" stroke-width="2" stroke-linecap="round"/>
<path d="M170.233 170.641C171.369 170.641 172.677 171.089 173.805 171.282C174.833 171.457 175.802 171.485 176.845 171.485" stroke="#1A1817" stroke-width="2" stroke-linecap="round"/>
<path d="M104.16 175.829C104.16 180.504 106.439 184.822 106.439 189.503" stroke="#1A1817" stroke-width="2" stroke-linecap="round"/>
<path d="M103.594 3.29272C106.644 6.2927 109.675 8.92128 113.309 11.1576" stroke="#E1E530" stroke-width="2" stroke-linecap="round"/>
<path d="M102.206 14.396C105.883 11.1519 111.978 7.34346 114.235 2.83008" stroke="#E1E530" stroke-width="2" stroke-linecap="round"/>
<path d="M108.22 1.90479C108.573 6.3149 109.511 10.0382 111.459 13.9334" stroke="#E1E530" stroke-width="2" stroke-linecap="round"/>
<path d="M99.8928 9.30705C106.728 8.24649 113.485 6.5591 120.249 5.14331" stroke="#E1E530" stroke-width="2" stroke-linecap="round"/>
<path d="M48.0635 169.725C53.3613 188.561 61.0953 205.404 68.9278 223.262C76.4954 240.516 81.4184 258.531 86.2061 276.618C88.2755 284.436 90.7192 292.071 92.4002 299.982C93.0612 303.093 93.4656 310.32 95.6603 312.515" stroke="#1A1817" stroke-width="2" stroke-linecap="round"/>
<path d="M55.8877 170.377C57.5544 182.877 63.0808 196.105 68.3121 207.614C73.1209 218.193 75.7095 230.164 81.3161 240.287C87.8146 252.02 91.1437 265.76 94.3563 278.611" stroke="#1A1817" stroke-width="2" stroke-linecap="round"/>
<path d="M149.28 165.576C149.28 174.23 148.444 182.958 148.124 191.583C147.756 201.532 144.326 211.5 142.634 221.315C141.466 228.088 140.039 235.013 138.042 241.575C136.914 245.283 134.832 250.076 134.832 254.001" stroke="#1A1817" stroke-width="2" stroke-linecap="round"/>
<path d="M157.159 157V170.089" stroke="#1A1817" stroke-width="2" stroke-linecap="round"/>
<path d="M149.422 155V173.958" stroke="#1A1817" stroke-width="2" stroke-linecap="round"/>
<path d="M111.8 260.156C111.774 263.615 111.523 267.078 111.326 270.526C111.231 272.198 111.639 273.796 111.639 275.421C111.639 276.418 112.061 277.45 111.478 278.325" stroke="#1A1817" stroke-width="5" stroke-linecap="round"/>
<path d="M111.317 266.587C111.963 261.425 111.771 256.166 111.925 250.973C112.009 248.13 112.121 245.276 112.121 242.434C112.121 237.405 112.121 232.376 112.121 227.347C112.121 223.511 112.256 219.532 111.317 215.779" stroke="#1A1817" stroke-width="5" stroke-linecap="round"/>
<path d="M110.835 218.834C110.687 222.088 110.56 225.329 110.674 228.588C110.763 231.133 110.91 233.662 110.745 236.208C110.373 241.947 110.47 247.688 110.183 253.429C109.874 259.596 110.194 265.774 109.861 271.938C109.784 273.365 109.87 271.304 109.87 270.937C109.87 265.933 109.288 261.003 108.977 256.011C108.577 249.596 109.648 243.22 109.942 236.824C110.129 232.741 110.741 228.634 110.576 224.542C110.529 223.387 110.352 222.241 110.352 221.085" stroke="#1A1817" stroke-width="5" stroke-linecap="round"/>
<path d="M106.741 246.636C106.908 248.972 107.498 251.258 107.756 253.58C107.77 253.703 108.127 254.915 108.144 254.909C108.863 254.67 108.585 246.785 108.606 246.359C109.049 237.247 109.443 228.133 109.899 219.026C110.187 213.255 109.4 207.562 109.4 201.795C109.4 200.268 109.4 198.741 109.4 197.215C109.4 196.253 109.4 196.289 109.4 197.362C109.4 205.168 109.4 212.974 109.4 220.78C109.4 225.707 109.236 230.667 109.4 235.592C109.51 238.891 109.733 228.994 109.733 225.693" stroke="#1A1817" stroke-width="5" stroke-linecap="round"/>
<path d="M107.738 253.949C107.436 254.97 107.274 258.182 107.406 257.126C107.972 252.595 107.767 247.905 107.258 243.385C106.492 236.58 104.885 228.992 106.408 222.184C106.564 221.489 106.785 220.949 107.073 220.374" stroke="#1A1817" stroke-width="5" stroke-linecap="round"/>
<path d="M107.073 221.704C108.968 215.641 108.403 209.024 108.403 202.755C108.403 197.733 107.406 192.786 107.406 187.796" stroke="#1A1817" stroke-width="5" stroke-linecap="round"/>
<path d="M108.403 221.039C107.304 214.992 108.127 208.39 107.997 202.275C107.896 197.557 107.738 192.848 107.738 188.128" stroke="#1A1817" stroke-width="5" stroke-linecap="round"/>
<path d="M111.062 216.385C111.381 214.433 111.358 212.491 111.339 210.512C111.276 203.699 110.918 196.889 110.582 190.086C110.38 185.993 110.185 181.897 109.732 177.823" stroke="#1A1817" stroke-width="5" stroke-linecap="round"/>
<path d="M110.065 199.431C110.065 193.259 109.577 187.29 109.068 181.147C108.708 176.807 109.263 173.074 109.732 168.847" stroke="#1A1817" stroke-width="5" stroke-linecap="round"/>
<path d="M107.073 160.537C106.786 165.611 106.357 170.674 106.741 175.754C107.027 179.55 107.686 183.308 108.07 187.094C108.434 190.672 108.735 194.174 108.735 197.769" stroke="#1A1817" stroke-width="5" stroke-linecap="round"/>
<path d="M107.406 159.207C107.488 158.544 109.003 158.958 109.326 159.281C109.814 159.769 109.451 162.348 109.548 162.938C110.183 166.786 111.062 170.598 111.062 174.499" stroke="#1A1817" stroke-width="5" stroke-linecap="round"/>
<path d="M109.871 168.274C111.339 172.221 111.874 176.18 111.519 180.349C111.382 181.964 111.273 183.603 111.068 185.21C110.959 186.073 110.607 187.094 110.885 187.929" stroke="#1A1817" stroke-width="5" stroke-linecap="round"/>
<path d="M111.393 185.773C111.393 188.834 111.296 191.887 111.209 194.946C111.108 198.525 111.409 202.124 111.195 205.696C111.033 208.416 110.89 211.227 110.505 213.924" stroke="#1A1817" stroke-width="5" stroke-linecap="round"/>
<path d="M104.672 222.167C104.967 222.019 105.035 220.689 105.08 220.363C105.245 219.173 105.15 217.969 105.242 216.771C105.476 213.74 105.555 210.652 105.658 207.612C105.767 204.395 105.673 201.153 105.489 197.94C105.211 193.094 104.618 188.223 104.672 183.364C104.686 182.12 104.9 180.869 104.989 179.63C105.131 177.651 105.223 175.668 105.278 173.685C105.288 173.304 105.505 172.274 105.235 172.543C104.631 173.148 104.486 174.692 104.418 175.502" stroke="#1A1817" stroke-width="5" stroke-linecap="round"/>
<path d="M104.925 174.361C104.925 169.184 105.462 164.013 106.193 158.891" stroke="#1A1817" stroke-width="5" stroke-linecap="round"/>
<path d="M105.089 214.602C105.614 226.149 106.826 237.535 109.214 248.827C110.048 252.77 110.496 256.713 110.496 260.742" stroke="#1A1817" stroke-width="5" stroke-linecap="round"/>
<path d="M103.419 161.286C103.419 159.887 103.684 158.864 105.095 158.433C105.929 158.178 106.852 157.983 107.725 157.925C107.915 157.912 108.429 157.907 107.895 157.916C107.104 157.928 106.291 157.984 105.541 158.255C104.251 158.719 103.618 160.217 103.294 161.447C102.69 163.738 102.551 166.011 102.705 168.375C102.766 169.304 102.855 170.237 103.008 171.156C103.111 171.773 103.089 171.606 103.098 171.076C103.142 168.425 103.518 165.67 104.542 163.212" stroke="#1A1817" stroke-width="5" stroke-linecap="round"/>
<path d="M107.27 158.718C105.96 161.201 104.533 163.538 103.918 166.306C103.462 168.358 103.428 170.553 103.258 172.646C102.817 178.063 102.975 183.559 103.329 188.98C103.641 193.747 103.626 198.528 103.508 203.3C103.443 205.912 103.735 208.489 104.06 211.075C104.215 212.304 104.542 213.658 104.542 214.891" stroke="#1A1817" stroke-width="5" stroke-linecap="round"/>
<path d="M111.6 119.172C109.013 119.172 106.631 119.57 104.069 119.747C98.897 120.104 93.6006 120.598 88.5304 121.671C84.8129 122.457 81.1378 123.146 77.4971 124.203C74.8881 124.961 72.4431 126.382 69.8674 127.097C67.0495 127.88 64.4677 129.351 61.8925 130.715C58.1725 132.684 54.4666 134.771 51.0564 137.226C47.3531 139.893 41.7557 142.425 40.0395 147.059C39.6198 148.193 38.7821 149.174 38.5103 150.397C38.0269 152.572 37.9019 154.479 37.9019 156.744C37.9019 158.678 38.7192 160.545 38.7898 162.45C38.8477 164.013 39.0157 165.408 39.6119 166.824C40.5092 168.955 40.8441 171.102 42.7855 172.612C43.5896 173.237 44.4199 173.935 45.3013 174.454C45.8227 174.76 47.1465 175.25 47.3731 175.703" stroke="#1A1817" stroke-width="2" stroke-linecap="round"/>
<path d="M111.6 119.172C117.035 119.666 122.59 120.021 128.011 120.816C133.321 121.595 138.311 123.04 143.5 124.269C147.16 125.136 150.86 126.46 154.386 127.771C157.393 128.891 160.622 129.828 163.331 131.603C164.551 132.402 165.982 132.68 167.014 133.609C168.043 134.535 168.647 135.01 169.464 136.19C170.535 137.737 170.514 139.657 170.862 141.436C171.557 144.99 171.491 148.706 171.388 152.321C171.301 155.352 169.505 157.911 167.836 160.247C166.072 162.716 162.369 165.64 159.253 165.64" stroke="#1A1817" stroke-width="2" stroke-linecap="round"/>
<path d="M71.0991 191.322C71.355 193.114 71.347 194.919 71.5789 196.712C71.9671 199.711 72.8363 202.672 73.562 205.603C74.7288 210.317 76.309 214.824 77.6561 219.469C78.3052 221.707 79.3934 223.889 79.8631 226.17C80.3376 228.475 80.9307 230.76 81.6862 232.999C82.2298 234.609 82.8141 236.191 83.3495 237.797C83.7534 239.008 83.9583 240.195 84.341 241.411C85.1405 243.95 85.1468 247.226 86.644 249.471" stroke="#1A1817" stroke-width="2" stroke-linecap="round"/>
<path d="M119.528 189.322C119.528 199.147 117.985 209.001 118.805 218.841C119.583 228.179 121.12 237.289 120.138 246.71C119.71 250.817 119.832 255.278 118.918 259.3C118.398 261.587 117.901 264.471 117.901 266.826C117.901 269.323 117.087 271.757 117.087 274.353" stroke="#1A1817" stroke-width="2" stroke-linecap="round"/>
<path d="M49.6768 170.229C49.8503 168.667 52.3833 166.093 53.6137 165.293C56.1282 163.659 58.9701 162.673 61.5242 161.112C63.4234 159.952 66.0246 157.724 68.3255 157.724" stroke="#1A1817" stroke-width="2" stroke-linecap="round"/>
<path d="M77.9788 153.775C78.1111 152.716 85.3029 151.77 86.4133 151.459C91.1634 150.129 96.2289 149.167 101.186 149.167C103.389 149.167 105.616 149.265 107.817 149.155C110.565 149.018 113.219 149.167 115.959 149.167C117.708 149.167 119.54 149.443 121.249 149.826C122.643 150.138 124.322 150.29 125.588 150.923" stroke="#1A1817" stroke-width="2" stroke-linecap="round"/>
<path d="M134.144 152.239C137.564 152.302 140.818 152.777 144.188 153.287C146.066 153.572 147.701 154.202 149.502 154.652" stroke="#1A1817" stroke-width="2" stroke-linecap="round"/>
<path d="M68.0889 157.564C69.1579 163.622 71.7505 169.144 73.803 174.846C75.7003 180.116 76.1367 186.5 78.8761 191.431C79.2957 192.186 79.6287 193.591 79.6287 194.441C79.6287 196.018 80.9818 197.948 81.4126 199.487C83.9165 208.429 86.3272 217.456 88.3811 226.552C89.3314 230.761 90.2513 235.026 90.9176 239.291C91.2806 241.614 91.4553 244.967 92.4228 247.095C93.6016 249.689 93.89 252.672 94.4576 255.43C94.7095 256.653 98.8039 268.606 98.4157 268.865C97.7675 269.297 101.456 278.843 101.928 280.46C104.291 288.564 105.714 297.045 106.973 305.352C108.477 315.277 108.227 325.164 108.227 335.177C108.227 343.531 106.722 351.43 106.722 359.65C106.722 371.157 106.722 382.601 106.722 393.991C106.722 398.302 106.722 402.613 106.722 406.925C106.722 413.636 104.917 420.095 103.712 426.659C102.969 430.704 101.763 434.488 100.813 438.478C99.0469 445.895 99.3976 454.268 99.8094 461.836C100.532 475.115 97.691 488.072 97.691 501.25C97.691 506.048 97.691 510.972 97.691 515.8" stroke="#1A1817" stroke-width="2" stroke-linecap="round"/>
<path d="M93.1753 275.973C94.0825 283.23 96.9018 290.822 98.1926 298.244C98.6095 300.642 99.1304 303.395 99.8093 305.687C100.47 307.915 100.434 310.319 100.952 312.599C101.376 314.464 100.856 316.42 101.705 318.118" stroke="#1A1817" stroke-width="2" stroke-linecap="round"/>
<path d="M95.1821 311.094C95.1821 313.023 95.744 315.621 96.4365 317.421C97.7141 320.743 97.6037 325.047 98.1925 328.543C98.7503 331.855 99.196 335.33 99.196 338.689C99.196 351.96 100.701 365.094 100.701 378.354C100.701 388.265 101.358 398.126 101.203 408.04C101.103 414.437 99.6977 420.7 99.6977 427.105C99.6977 431.643 98.8163 436.026 98.6942 440.541C98.5753 444.94 99.6977 449.082 99.6977 453.5" stroke="#1A1817" stroke-width="2" stroke-linecap="round"/>
<path d="M101.203 317.616C101.762 323.205 102.708 328.824 102.708 334.452C102.708 339.795 102.532 346.083 103.963 351.232C105.227 355.785 104.574 360.911 105.607 365.56C106.922 371.477 106.225 377.852 107.224 383.845" stroke="#1A1817" stroke-width="2" stroke-linecap="round"/>
<path d="M156.805 169.465C156.805 171.908 157.088 174.352 157.088 176.827C157.088 178.85 156.445 180.778 156.223 182.774C155.731 187.2 155.094 191.678 154.54 196.114C153.821 201.867 153.727 207.66 153.344 213.482C153.292 214.277 152.566 216.235 152.904 217.037C153.366 218.135 153.09 219.425 152.904 220.561C152.577 222.556 152.519 224.646 151.991 226.602C151.401 228.789 150.736 231.107 150.308 233.319C149.498 237.504 147.927 241.784 146.674 245.857C146.069 247.822 146.064 249.967 145.62 252.008C143.55 261.533 141.911 271.256 139.941 280.876C138.915 285.887 138.719 291.013 137.896 296.041C137.524 298.312 137.77 300.575 137.487 302.837C137.179 305.298 136.617 307.738 136.276 310.199C135.7 314.345 135.194 318.484 134.734 322.627C134.575 324.061 135.001 325.565 135.001 327.016C135.001 328.317 134.775 329.532 134.718 330.807C134.613 333.181 134.146 335.595 133.884 337.95C133.813 338.588 133.751 341.548 133.585 341.631" stroke="#1A1817" stroke-width="2" stroke-linecap="round"/>
<path d="M119.327 407.858C119.327 410.481 120.038 413.289 120.038 416.029C120.038 419.048 120.038 409.99 120.038 406.97C120.038 403.679 119.327 413.527 119.327 416.818C119.327 424.047 120.061 431.396 121.814 438.409" stroke="#1A1817" stroke-width="4" stroke-linecap="round"/>
<path d="M120.038 416.384C120.038 419.919 120.086 423.453 119.86 426.982C119.396 434.213 120.525 441.554 121.459 448.712" stroke="#1A1817" stroke-width="4" stroke-linecap="round"/>
<path d="M121.104 433.436C121.104 441.798 121.756 450.221 122.525 458.54C122.92 462.825 122.895 467.602 123.945 471.803" stroke="#1A1817" stroke-width="4" stroke-linecap="round"/>
<path d="M120.748 434.502C121.148 436.753 121.12 439.05 121.182 441.33C121.362 447.87 121.435 454.406 121.459 460.948C121.482 467.41 121.814 473.87 121.814 480.329" stroke="#1A1817" stroke-width="4" stroke-linecap="round"/>
<path d="M119.327 449.067C120.055 453.351 121.862 485.657 122.524 485.657" stroke="#1A1817" stroke-width="4" stroke-linecap="round"/>
<path d="M123.945 465.763C124.045 472.219 124.652 478.656 124.932 485.105C124.958 485.7 125.011 490.914 125.011 489.92" stroke="#1A1817" stroke-width="4" stroke-linecap="round"/>
<path d="M117.906 421.002C118.56 424.191 118.237 427.547 118.084 430.772C117.879 435.065 117.879 439.297 118.261 443.58C118.976 451.571 120.177 459.547 120.748 467.54" stroke="#1A1817" stroke-width="4" stroke-linecap="round"/>
<path d="M120.038 432.37C122.609 440.626 123.526 449.69 123.866 458.303C124.094 464.063 124.124 469.708 122.959 475.355C121.536 482.247 121.103 489.295 121.103 496.315" stroke="#1A1817" stroke-width="4" stroke-linecap="round"/>
<path d="M123.945 485.657C125.163 491.34 126.077 497.236 126.077 503.065" stroke="#1A1817" stroke-width="4" stroke-linecap="round"/>
<path d="M117.293 435.41C117.293 456.45 118.295 519.561 118.295 498.521" stroke="#1A1817" stroke-width="4" stroke-linecap="round"/>
<path d="M119.297 482.493C119.297 489.513 120.299 510.551 120.299 503.53" stroke="#1A1817" stroke-width="4" stroke-linecap="round"/>
<path d="M122.302 493.512V502.528" stroke="#1A1817" stroke-width="4" stroke-linecap="round"/>
</svg>
