<svg width="135" height="135" viewBox="0 0 135 135" fill="none" xmlns="http://www.w3.org/2000/svg">
<path d="M37.379 60.7328C31.1985 60.873 26.6231 62.7656 22.7243 67.1127C15.6045 75.051 32.3581 82.8877 39.8214 82.9986C53.0306 83.1949 51.0483 62.3451 39.8214 60.4776C36.0499 59.8502 33.3701 59.5907 30.0516 61.307" stroke="black" stroke-width="3" stroke-linecap="round"/>
<path d="M85.1906 54C83.3317 54.1609 80.8156 56.0137 79.4531 56.9637C74.6507 60.3119 73.4695 64.4516 74.1977 69.6116C74.6897 73.098 76.0011 77.6063 80.8031 77.9601C85.3301 78.2937 90.4835 76.4996 93.8692 73.9528C97.8406 70.9654 98.5273 67.005 97.6781 62.6824C97.2561 60.5338 96.0891 57.2924 93.6763 56.1706C91.7419 55.2712 89.5764 55.78 87.7942 54.7514" stroke="black" stroke-width="3" stroke-linecap="round"/>
<path d="M64 79C69.33 81.4747 69.9555 87.4198 71 92" stroke="black" stroke-width="3" stroke-linecap="round"/>
<path d="M39.6391 72C38.077 72.1606 39.8124 77.4691 40.2693 78.2207C40.6028 78.7695 42.2342 80.863 43 79.6031" stroke="black" stroke-width="3" stroke-linecap="round"/>
<path d="M40 71C42.4007 71 43.7466 71 46 71" stroke="black" stroke-width="3" stroke-linecap="round"/>
<path d="M97 62.8C95.8481 62.8 95.1766 62 93.9335 62C91.5072 62 90.661 62.2571 89.5528 64.4C88.5261 66.3853 88.831 72.8705 91.3051 74" stroke="black" stroke-width="3" stroke-linecap="round"/>
<path d="M36 47C36.7637 46.4193 37.6744 45.9182 38.6188 45.5714C40.171 45.0015 42.7892 43.9206 44.5017 43.9206C45.58 43.9206 46.5607 45.1977 47.2723 45.7302C48.1753 46.406 49.7216 46.183 50.7261 45.8095C55.0338 44.2081 58.3397 41.8963 61.9604 39.4603C64.5341 37.7288 67.6801 36.7768 70.8226 36.0159C73.3565 35.4023 75.7323 35.2435 78.3564 35.2857C80.7539 35.3243 82.5141 36.9542 84.7706 37.3492C88.2756 37.9628 91.4231 36.9969 94.8663 36.2063C98.3533 35.4057 101.778 34.3477 105 33" stroke="black" stroke-width="3" stroke-linecap="round"/>
<path d="M54 109.459C56.582 111.304 60.16 113.476 63.5167 113.881C68.7571 114.514 75.1044 112.52 79.598 110.285C84.4449 107.874 88.5134 104.652 92.8437 101.613C94.4694 100.473 95.9651 99.6045 97 98" stroke="black" stroke-width="3" stroke-linecap="round"/>
<path d="M69 93.1849C68.8664 93.1961 65.4931 94.7841 65.2667 93.497C65.1768 92.9862 62.7738 91.345 62 91" stroke="black" stroke-width="3" stroke-linecap="round"/>
<path d="M123 52C124.571 53.0086 125.872 56.6001 126.21 58.4751C126.607 60.6756 127 62.7575 127 65" stroke="black" stroke-width="3" stroke-linecap="round"/>
<path d="M7 64C3.44752 67.1031 2.18315 69.8741 2.09363 74.3704C2.03291 77.4201 1.5216 81.429 3.72909 84" stroke="black" stroke-width="3" stroke-linecap="round"/>
<path d="M10 75V78" stroke="black" stroke-width="3" stroke-linecap="round"/>
<path d="M117 59C118.949 59.4914 119 60.1186 119 61" stroke="black" stroke-width="3" stroke-linecap="round"/>
<path d="M32 39C32.7222 31.9682 38.2298 28.3939 45.2346 28.3939C49.0544 28.3939 52.8261 26.8644 56 25" stroke="black" stroke-width="3" stroke-linecap="round"/>
<path d="M69 28C72.5501 25.6727 75.3968 22.758 78.546 20.043C80.6328 18.244 81.686 17.6574 84.5492 17.9355C89.4267 18.4092 95.8772 18.7028 100 16" stroke="black" stroke-width="3" stroke-linecap="round"/>
<path d="M15 25C17.0738 24.6988 19.1743 23.2482 20.9649 22.4011C25.9835 20.0272 31.3218 18.1963 36.2997 15.774C40.4443 13.7572 44.1016 11.1044 48.2047 9.03861C53.8182 6.21238 60.131 4.38661 66 2" stroke="black" stroke-width="3" stroke-linecap="round"/>
<path d="M14 40C15.2676 38.6368 16.1812 37.0592 17.5185 35.7207C19.6435 33.5938 22.353 32.2169 25.0331 30.7207C28.121 28.9968 30.1279 26.9304 33 25" stroke="black" stroke-width="3" stroke-linecap="round"/>
<path d="M56 23C62.5048 22.7386 67.0381 16.6533 70 13" stroke="black" stroke-width="3" stroke-linecap="round"/>
<path d="M30 126.486C52.9213 136.113 76.7606 134.913 98.7977 123.921C110.955 117.856 122.712 110.391 133 102" stroke="black" stroke-width="3" stroke-linecap="round"/>
</svg>
